<svg width="215" height="78" viewBox="0 0 215 78" fill="none" xmlns="http://www.w3.org/2000/svg">
<g clip-path="url(#clip0_63_2642)">
<path d="M12.8081 4.26969C11.7972 3.53436 10.038 3.17065 7.53045 3.17065C5.02295 3.17065 3.24781 3.53436 2.21297 4.26969C1.17813 5.00502 0.549261 5.93801 0.326373 7.07658C0.111444 8.21515 0 9.37745 0 10.5714V52.6036C0 53.7975 0.111444 54.9756 0.326373 56.1379C0.541301 57.3081 1.17017 58.249 2.21297 58.9843C3.24781 59.7197 4.99907 60.0834 7.45085 60.0834C9.90262 60.0834 11.7335 59.7197 12.7683 58.9843C13.8032 58.249 14.432 57.316 14.6549 56.1774C14.8699 55.0389 14.9813 53.8766 14.9813 52.6827V10.6504C14.9813 9.40117 14.8699 8.21515 14.6549 7.07658C14.44 5.93801 13.8191 5.00502 12.8161 4.26969H12.8081Z" fill="#F3F3F3"/>
<path d="M67.3551 1.0595C66.3441 0.355803 64.5849 0 62.0774 0C59.5699 0 57.9062 0.36371 56.9191 1.09904C55.932 1.83436 55.3748 2.76736 55.2395 3.90593C55.1042 5.0445 55.0325 6.20679 55.0325 7.40071V21.364L55.0484 22.5817C54.141 21.8384 53.1698 21.1505 52.127 20.5338C48.8553 18.6125 45.1936 17.6478 41.1577 17.6478C38.2124 17.6478 35.4422 18.2171 32.8471 19.3557C30.2521 20.4943 27.9595 22.0519 25.9694 24.0286C23.9793 26.0053 22.4112 28.2982 21.2649 30.8995C20.1186 33.5009 19.5455 36.2919 19.5455 39.2728C19.5455 42.5224 20.1902 45.4638 21.4719 48.0967C22.7535 50.7296 24.4729 52.9752 26.6301 54.8491C28.7874 56.723 31.1436 58.1541 33.7148 59.1582C36.278 60.1624 38.8174 60.6605 41.3249 60.6605C43.8324 60.6605 46.2762 60.1861 48.8155 59.2373C51.1956 58.3518 53.3927 57.0471 55.4067 55.3709L55.4226 56.8337C55.8445 57.7113 56.4415 58.3992 57.2455 58.8736C58.336 59.5219 59.9759 59.8461 62.157 59.8461C64.6088 59.8461 66.3441 59.4824 67.3551 58.7471C68.366 58.0118 68.979 57.0788 69.1939 55.9402C69.4088 54.8016 69.5203 53.6393 69.5203 52.4454V7.32164C69.5203 6.07238 69.4088 4.89427 69.1939 3.78733C68.979 2.68039 68.3581 1.77111 67.3551 1.06741V1.0595Z" fill="#F3F3F3"/>
<path d="M105.8 20.692C102.529 18.7707 98.867 17.806 94.8312 17.806C91.8859 17.806 89.1157 18.3753 86.5206 19.5139C83.9255 20.6525 81.633 22.2101 79.6429 24.1868C77.6528 26.1635 76.0846 28.4564 74.9384 31.0577C73.7921 33.659 73.2189 36.4501 73.2189 39.431C73.2189 42.6806 73.8637 45.6219 75.1453 48.2549C76.4269 50.8878 78.1464 53.1333 80.3036 55.0072C82.4608 56.8811 84.8171 58.3123 87.3883 59.3164C89.9515 60.3206 92.4908 60.8187 94.9983 60.8187C97.5058 60.8187 99.9496 60.3443 102.489 59.3955C105.028 58.4467 107.361 57.0551 109.486 55.2049C111.611 53.3626 113.331 51.1092 114.644 48.4526C115.958 45.7959 116.611 42.7597 116.611 39.344C116.611 35.3353 115.631 31.6982 113.665 28.4485C111.699 25.1988 109.08 22.6054 105.808 20.6841L105.8 20.692Z" fill="#F3F3F3"/>
<path d="M139.894 46.1437C139.106 45.954 138.35 45.8591 137.642 45.8591C137.092 45.8591 136.671 45.8433 136.376 45.8196C136.074 45.7958 135.859 45.6693 135.723 45.4559C135.588 45.2424 135.508 44.9024 135.477 44.4359C135.445 43.9773 135.437 43.3368 135.437 42.5225V7.47978C135.437 6.23051 135.325 5.0445 135.11 3.90593C134.895 2.76736 134.275 1.83436 133.272 1.09904C132.261 0.36371 130.533 0 128.073 0C125.614 0 123.87 0.36371 122.836 1.09904C121.801 1.83436 121.172 2.75155 120.949 3.8664C120.734 4.98125 120.623 6.15935 120.623 7.40071V43.4159C120.623 46.3968 120.814 48.8795 121.196 50.8562C121.578 52.8328 122.175 54.43 122.995 55.6555C123.815 56.8811 124.881 57.8141 126.187 58.4624C127.5 59.1108 129.092 59.5457 130.979 59.7671C132.858 59.9805 135.055 60.0912 137.57 60.0912C138.279 60.0912 139.043 59.9963 139.863 59.8066C140.683 59.6168 141.375 59.008 141.948 57.9801C142.521 56.9523 142.808 55.2128 142.808 52.7775C142.808 50.3422 142.521 48.8083 141.948 47.8595C141.375 46.9107 140.691 46.3414 139.902 46.1516L139.894 46.1437Z" fill="#F3F3F3"/>
<path d="M165.352 46.1437C164.563 45.954 163.807 45.8591 163.099 45.8591C162.55 45.8591 162.128 45.8433 161.833 45.8196C161.531 45.7958 161.316 45.6693 161.18 45.4559C161.045 45.2424 160.965 44.9024 160.934 44.4359C160.902 43.9773 160.894 43.3368 160.894 42.5225V7.47978C160.894 6.23051 160.782 5.0445 160.567 3.90593C160.352 2.76736 159.732 1.83436 158.729 1.09904C157.718 0.36371 155.99 0 153.53 0C151.071 0 149.327 0.36371 148.293 1.09904C147.258 1.83436 146.629 2.75155 146.406 3.8664C146.191 4.98125 146.08 6.15935 146.08 7.40071V43.4159C146.08 46.3968 146.271 48.8795 146.653 50.8562C147.035 52.8328 147.632 54.43 148.452 55.6555C149.272 56.8811 150.338 57.8141 151.644 58.4624C152.957 59.1108 154.549 59.5457 156.436 59.7671C158.315 59.9805 160.512 60.0912 163.027 60.0912C163.736 60.0912 164.5 59.9963 165.32 59.8066C166.14 59.6168 166.832 59.008 167.405 57.9801C167.978 56.9523 168.265 55.2128 168.265 52.7775C168.265 50.3422 167.978 48.8083 167.405 47.8595C166.832 46.9107 166.148 46.3414 165.36 46.1516L165.352 46.1437Z" fill="#F3F3F3"/>
<path d="M214.785 23.0877C214.323 21.7356 212.779 20.4626 210.16 19.2687C207.43 18.1855 205.416 17.885 204.102 18.3752C202.789 18.8655 201.563 20.3836 200.417 22.9295L193.969 37.2724L183.716 21.8779C182.243 19.6561 180.81 18.3673 179.417 18.0194C178.024 17.6715 176.05 18.2804 173.479 19.8459C171.131 21.3086 169.825 22.7635 169.547 24.1946C169.276 25.6336 169.849 27.4364 171.266 29.6028L186.868 53.0463L180.516 67.1677C179.37 69.5002 179.011 71.382 179.449 72.8211C179.887 74.2601 181.439 75.5726 184.114 76.7665C186.844 77.9604 188.874 78.3004 190.212 77.7865C191.549 77.2726 192.759 75.7386 193.857 73.1927L213.909 28.5591C214.944 26.282 215.231 24.4634 214.769 23.1114L214.785 23.0877Z" fill="#F3F3F3"/>
<rect opacity="0.9" x="32.983" y="28.0312" width="70.8523" height="20.7188" rx="8" fill="url(#paint0_linear_63_2642)"/>
<ellipse cx="40.9233" cy="39" rx="11.6051" ry="12.1875" fill="#FF1376"/>
</g>
<defs>
<linearGradient id="paint0_linear_63_2642" x1="101.92" y1="38.3906" x2="35.8553" y2="38.3906" gradientUnits="userSpaceOnUse">
<stop stop-color="#95E6FF"/>
<stop offset="1" stop-color="#FFBCE3"/>
</linearGradient>
<clipPath id="clip0_63_2642">
<rect width="215" height="78" fill="white"/>
</clipPath>
</defs>
</svg>
